<svg id="visual" viewBox="0 0 960 540" width="960" height="540" xmlns="http://www.w3.org/2000/svg" xmlns:xlink="http://www.w3.org/1999/xlink" version="1.1"><rect x="0" y="0" width="960" height="540" fill="#0f121c"></rect><path d="M867 540L805 540L805 517L350 517L350 493L863 493L863 470L869 470L869 446L433 446L433 423L729 423L729 399L402 399L402 376L918 376L918 352L444 352L444 329L518 329L518 305L891 305L891 282L422 282L422 258L524 258L524 235L772 235L772 211L708 211L708 188L431 188L431 164L298 164L298 141L480 141L480 117L449 117L449 94L626 94L626 70L702 70L702 47L885 47L885 23L791 23L791 0L960 0L960 23L960 23L960 47L960 47L960 70L960 70L960 94L960 94L960 117L960 117L960 141L960 141L960 164L960 164L960 188L960 188L960 211L960 211L960 235L960 235L960 258L960 258L960 282L960 282L960 305L960 305L960 329L960 329L960 352L960 352L960 376L960 376L960 399L960 399L960 423L960 423L960 446L960 446L960 470L960 470L960 493L960 493L960 517L960 517L960 540L960 540Z" fill="#4931b1"></path><path d="M832 540L773 540L773 517L760 517L760 493L454 493L454 470L411 470L411 446L710 446L710 423L417 423L417 399L689 399L689 376L911 376L911 352L614 352L614 329L530 329L530 305L718 305L718 282L550 282L550 258L682 258L682 235L569 235L569 211L572 211L572 188L832 188L832 164L691 164L691 141L393 141L393 117L815 117L815 94L883 94L883 70L389 70L389 47L541 47L541 23L592 23L592 0L960 0L960 23L960 23L960 47L960 47L960 70L960 70L960 94L960 94L960 117L960 117L960 141L960 141L960 164L960 164L960 188L960 188L960 211L960 211L960 235L960 235L960 258L960 258L960 282L960 282L960 305L960 305L960 329L960 329L960 352L960 352L960 376L960 376L960 399L960 399L960 423L960 423L960 446L960 446L960 470L960 470L960 493L960 493L960 517L960 517L960 540L960 540Z" fill="#402a9f"></path><path d="M666 540L529 540L529 517L866 517L866 493L612 493L612 470L927 470L927 446L509 446L509 423L675 423L675 399L575 399L575 376L856 376L856 352L598 352L598 329L470 329L470 305L712 305L712 282L612 282L612 258L830 258L830 235L458 235L458 211L927 211L927 188L842 188L842 164L690 164L690 141L546 141L546 117L466 117L466 94L520 94L520 70L743 70L743 47L803 47L803 23L920 23L920 0L960 0L960 23L960 23L960 47L960 47L960 70L960 70L960 94L960 94L960 117L960 117L960 141L960 141L960 164L960 164L960 188L960 188L960 211L960 211L960 235L960 235L960 258L960 258L960 282L960 282L960 305L960 305L960 329L960 329L960 352L960 352L960 376L960 376L960 399L960 399L960 423L960 423L960 446L960 446L960 470L960 470L960 493L960 493L960 517L960 517L960 540L960 540Z" fill="#36238e"></path><path d="M514 540L950 540L950 517L705 517L705 493L615 493L615 470L525 470L525 446L619 446L619 423L846 423L846 399L604 399L604 376L769 376L769 352L802 352L802 329L775 329L775 305L553 305L553 282L663 282L663 258L538 258L538 235L872 235L872 211L651 211L651 188L880 188L880 164L683 164L683 141L930 141L930 117L921 117L921 94L818 94L818 70L656 70L656 47L949 47L949 23L881 23L881 0L960 0L960 23L960 23L960 47L960 47L960 70L960 70L960 94L960 94L960 117L960 117L960 141L960 141L960 164L960 164L960 188L960 188L960 211L960 211L960 235L960 235L960 258L960 258L960 282L960 282L960 305L960 305L960 329L960 329L960 352L960 352L960 376L960 376L960 399L960 399L960 423L960 423L960 446L960 446L960 470L960 470L960 493L960 493L960 517L960 517L960 540L960 540Z" fill="#2d1c7c"></path><path d="M591 540L890 540L890 517L692 517L692 493L951 493L951 470L626 470L626 446L854 446L854 423L916 423L916 399L817 399L817 376L759 376L759 352L961 352L961 329L757 329L757 305L953 305L953 282L621 282L621 258L732 258L732 235L741 235L741 211L649 211L649 188L598 188L598 164L639 164L639 141L842 141L842 117L614 117L614 94L661 94L661 70L913 70L913 47L744 47L744 23L888 23L888 0L960 0L960 23L960 23L960 47L960 47L960 70L960 70L960 94L960 94L960 117L960 117L960 141L960 141L960 164L960 164L960 188L960 188L960 211L960 211L960 235L960 235L960 258L960 258L960 282L960 282L960 305L960 305L960 329L960 329L960 352L960 352L960 376L960 376L960 399L960 399L960 423L960 423L960 446L960 446L960 470L960 470L960 493L960 493L960 517L960 517L960 540L960 540Z" fill="#25166c"></path><path d="M693 540L942 540L942 517L713 517L713 493L746 493L746 470L949 470L949 446L788 446L788 423L930 423L930 399L806 399L806 376L755 376L755 352L952 352L952 329L816 329L816 305L888 305L888 282L771 282L771 258L811 258L811 235L884 235L884 211L875 211L875 188L814 188L814 164L800 164L800 141L918 141L918 117L773 117L773 94L755 94L755 70L731 70L731 47L955 47L955 23L929 23L929 0L960 0L960 23L960 23L960 47L960 47L960 70L960 70L960 94L960 94L960 117L960 117L960 141L960 141L960 164L960 164L960 188L960 188L960 211L960 211L960 235L960 235L960 258L960 258L960 282L960 282L960 305L960 305L960 329L960 329L960 352L960 352L960 376L960 376L960 399L960 399L960 423L960 423L960 446L960 446L960 470L960 470L960 493L960 493L960 517L960 517L960 540L960 540Z" fill="#1c105c"></path><path d="M925 540L804 540L804 517L832 517L832 493L796 493L796 470L785 470L785 446L835 446L835 423L814 423L814 399L823 399L823 376L956 376L956 352L958 352L958 329L891 329L891 305L793 305L793 282L783 282L783 258L936 258L936 235L948 235L948 211L786 211L786 188L819 188L819 164L837 164L837 141L884 141L884 117L932 117L932 94L765 94L765 70L901 70L901 47L956 47L956 23L911 23L911 0L960 0L960 23L960 23L960 47L960 47L960 70L960 70L960 94L960 94L960 117L960 117L960 141L960 141L960 164L960 164L960 188L960 188L960 211L960 211L960 235L960 235L960 258L960 258L960 282L960 282L960 305L960 305L960 329L960 329L960 352L960 352L960 376L960 376L960 399L960 399L960 423L960 423L960 446L960 446L960 470L960 470L960 493L960 493L960 517L960 517L960 540L960 540Z" fill="#130a4c"></path><path d="M887 540L900 540L900 517L845 517L845 493L824 493L824 470L874 470L874 446L859 446L859 423L951 423L951 399L891 399L891 376L958 376L958 352L866 352L866 329L945 329L945 305L893 305L893 282L945 282L945 258L869 258L869 235L886 235L886 211L899 211L899 188L912 188L912 164L938 164L938 141L816 141L816 117L853 117L853 94L927 94L927 70L939 70L939 47L894 47L894 23L892 23L892 0L960 0L960 23L960 23L960 47L960 47L960 70L960 70L960 94L960 94L960 117L960 117L960 141L960 141L960 164L960 164L960 188L960 188L960 211L960 211L960 235L960 235L960 258L960 258L960 282L960 282L960 305L960 305L960 329L960 329L960 352L960 352L960 376L960 376L960 399L960 399L960 423L960 423L960 446L960 446L960 470L960 470L960 493L960 493L960 517L960 517L960 540L960 540Z" fill="#0e013d"></path></svg>