<svg id="visual" viewBox="0 0 960 540" width="960" height="540" xmlns="http://www.w3.org/2000/svg" xmlns:xlink="http://www.w3.org/1999/xlink" version="1.1"><g stroke-width="1" stroke-linejoin="bevel"><path d="M465 238L446 203L421 288Z" fill="#00172b" stroke="#00172b"></path><path d="M327 170L390 308L421 288Z" fill="#00286a" stroke="#00286a"></path><path d="M439 98L419 128L537 157Z" fill="#0f2c95" stroke="#0f2c95"></path><path d="M446 203L327 170L421 288Z" fill="#2e2ab0" stroke="#2e2ab0"></path><path d="M419 128L327 170L446 203Z" fill="#00255b" stroke="#00255b"></path><path d="M327 170L303 303L390 308Z" fill="#00214b" stroke="#00214b"></path><path d="M537 157L419 128L446 203Z" fill="#022b87" stroke="#022b87"></path><path d="M419 128L409 95L327 170Z" fill="#0f2c95" stroke="#0f2c95"></path><path d="M624 218L537 157L465 238Z" fill="#00172b" stroke="#00172b"></path><path d="M465 238L537 157L446 203Z" fill="#00286a" stroke="#00286a"></path><path d="M439 98L409 95L419 128Z" fill="#0f2c95" stroke="#0f2c95"></path><path d="M327 170L252 270L303 303Z" fill="#2e2ab0" stroke="#2e2ab0"></path><path d="M390 308L410 415L421 288Z" fill="#00214b" stroke="#00214b"></path><path d="M534 414L609 291L465 238Z" fill="#002a79" stroke="#002a79"></path><path d="M295 402L410 415L390 308Z" fill="#001c3b" stroke="#001c3b"></path><path d="M295 402L390 308L303 303Z" fill="#001c3b" stroke="#001c3b"></path><path d="M534 414L465 238L421 288Z" fill="#0f2c95" stroke="#0f2c95"></path><path d="M243 404L295 402L303 303Z" fill="#00286a" stroke="#00286a"></path><path d="M226 136L216 218L327 170Z" fill="#001c3b" stroke="#001c3b"></path><path d="M327 170L216 218L252 270Z" fill="#2e2ab0" stroke="#2e2ab0"></path><path d="M252 270L243 404L303 303Z" fill="#0f2c95" stroke="#0f2c95"></path><path d="M609 291L624 218L465 238Z" fill="#022b87" stroke="#022b87"></path><path d="M410 415L534 414L421 288Z" fill="#00101c" stroke="#00101c"></path><path d="M228 75L226 136L327 170Z" fill="#00101c" stroke="#00101c"></path><path d="M534 414L615 360L609 291Z" fill="#00255b" stroke="#00255b"></path><path d="M609 291L658 225L624 218Z" fill="#1e2ca3" stroke="#1e2ca3"></path><path d="M458 486L517 452L410 415Z" fill="#002a79" stroke="#002a79"></path><path d="M410 415L517 452L534 414Z" fill="#022b87" stroke="#022b87"></path><path d="M534 414L626 407L615 360Z" fill="#00255b" stroke="#00255b"></path><path d="M624 218L581 69L537 157Z" fill="#00214b" stroke="#00214b"></path><path d="M537 157L581 69L439 98Z" fill="#00101c" stroke="#00101c"></path><path d="M439 98L423 0L409 95Z" fill="#022b87" stroke="#022b87"></path><path d="M155 342L243 404L252 270Z" fill="#00255b" stroke="#00255b"></path><path d="M353 540L458 486L410 415Z" fill="#002a79" stroke="#002a79"></path><path d="M668 357L658 225L609 291Z" fill="#002a79" stroke="#002a79"></path><path d="M624 218L729 69L581 69Z" fill="#0f2c95" stroke="#0f2c95"></path><path d="M457 0L423 0L439 98Z" fill="#022b87" stroke="#022b87"></path><path d="M409 95L228 75L327 170Z" fill="#00214b" stroke="#00214b"></path><path d="M581 69L457 0L439 98Z" fill="#022b87" stroke="#022b87"></path><path d="M353 540L410 415L295 402Z" fill="#00172b" stroke="#00172b"></path><path d="M254 0L228 75L409 95Z" fill="#00286a" stroke="#00286a"></path><path d="M141 165L153 240L216 218Z" fill="#00255b" stroke="#00255b"></path><path d="M141 165L216 218L226 136Z" fill="#001c3b" stroke="#001c3b"></path><path d="M216 218L153 240L252 270Z" fill="#002a79" stroke="#002a79"></path><path d="M517 452L626 407L534 414Z" fill="#00172b" stroke="#00172b"></path><path d="M615 360L668 357L609 291Z" fill="#00172b" stroke="#00172b"></path><path d="M625 540L626 407L517 452Z" fill="#00172b" stroke="#00172b"></path><path d="M626 407L668 357L615 360Z" fill="#00214b" stroke="#00214b"></path><path d="M153 240L147 299L252 270Z" fill="#00101c" stroke="#00101c"></path><path d="M147 299L155 342L252 270Z" fill="#0f2c95" stroke="#0f2c95"></path><path d="M155 342L179 399L243 404Z" fill="#00172b" stroke="#00172b"></path><path d="M327 540L353 540L295 402Z" fill="#0f2c95" stroke="#0f2c95"></path><path d="M150 112L141 165L226 136Z" fill="#00255b" stroke="#00255b"></path><path d="M153 240L0 253L147 299Z" fill="#00172b" stroke="#00172b"></path><path d="M423 0L254 0L409 95Z" fill="#1e2ca3" stroke="#1e2ca3"></path><path d="M228 75L150 112L226 136Z" fill="#00255b" stroke="#00255b"></path><path d="M151 0L150 112L228 75Z" fill="#2e2ab0" stroke="#2e2ab0"></path><path d="M643 0L601 0L581 69Z" fill="#1e2ca3" stroke="#1e2ca3"></path><path d="M581 69L601 0L457 0Z" fill="#00255b" stroke="#00255b"></path><path d="M327 540L295 402L238 540Z" fill="#00214b" stroke="#00214b"></path><path d="M458 486L537 540L517 452Z" fill="#00172b" stroke="#00172b"></path><path d="M238 540L295 402L243 404Z" fill="#00214b" stroke="#00214b"></path><path d="M353 540L537 540L458 486Z" fill="#00172b" stroke="#00172b"></path><path d="M816 330L746 302L810 443Z" fill="#001c3b" stroke="#001c3b"></path><path d="M729 69L643 0L581 69Z" fill="#0f2c95" stroke="#0f2c95"></path><path d="M729 69L624 218L658 225Z" fill="#1e2ca3" stroke="#1e2ca3"></path><path d="M810 443L668 357L626 407Z" fill="#001c3b" stroke="#001c3b"></path><path d="M668 357L746 302L658 225Z" fill="#022b87" stroke="#022b87"></path><path d="M746 302L754 216L658 225Z" fill="#00286a" stroke="#00286a"></path><path d="M116 540L238 540L179 399Z" fill="#022b87" stroke="#022b87"></path><path d="M179 399L238 540L243 404Z" fill="#022b87" stroke="#022b87"></path><path d="M754 216L729 69L658 225Z" fill="#0f2c95" stroke="#0f2c95"></path><path d="M254 0L151 0L228 75Z" fill="#001c3b" stroke="#001c3b"></path><path d="M0 186L153 240L141 165Z" fill="#00101c" stroke="#00101c"></path><path d="M537 540L625 540L517 452Z" fill="#022b87" stroke="#022b87"></path><path d="M870 139L735 61L729 69Z" fill="#00255b" stroke="#00255b"></path><path d="M729 69L735 61L643 0Z" fill="#00172b" stroke="#00172b"></path><path d="M151 0L143 0L150 112Z" fill="#00286a" stroke="#00286a"></path><path d="M746 302L816 330L754 216Z" fill="#1e2ca3" stroke="#1e2ca3"></path><path d="M870 139L805 0L735 61Z" fill="#002a79" stroke="#002a79"></path><path d="M810 443L746 302L668 357Z" fill="#2e2ab0" stroke="#2e2ab0"></path><path d="M625 540L696 540L626 407Z" fill="#00214b" stroke="#00214b"></path><path d="M147 299L0 357L155 342Z" fill="#0f2c95" stroke="#0f2c95"></path><path d="M50 460L116 540L179 399Z" fill="#002a79" stroke="#002a79"></path><path d="M0 186L0 253L153 240Z" fill="#022b87" stroke="#022b87"></path><path d="M0 186L141 165L0 96Z" fill="#1e2ca3" stroke="#1e2ca3"></path><path d="M0 96L141 165L150 112Z" fill="#00172b" stroke="#00172b"></path><path d="M50 460L179 399L155 342Z" fill="#00172b" stroke="#00172b"></path><path d="M0 357L50 460L155 342Z" fill="#0f2c95" stroke="#0f2c95"></path><path d="M0 253L0 357L147 299Z" fill="#002a79" stroke="#002a79"></path><path d="M696 540L810 443L626 407Z" fill="#1e2ca3" stroke="#1e2ca3"></path><path d="M143 0L0 96L150 112Z" fill="#00172b" stroke="#00172b"></path><path d="M918 457L865 308L816 330Z" fill="#2e2ab0" stroke="#2e2ab0"></path><path d="M816 330L876 256L754 216Z" fill="#00255b" stroke="#00255b"></path><path d="M870 139L729 69L754 216Z" fill="#00172b" stroke="#00172b"></path><path d="M735 61L805 0L643 0Z" fill="#00255b" stroke="#00255b"></path><path d="M865 308L876 256L816 330Z" fill="#00286a" stroke="#00286a"></path><path d="M891 201L870 139L754 216Z" fill="#002a79" stroke="#002a79"></path><path d="M696 540L780 540L810 443Z" fill="#001c3b" stroke="#001c3b"></path><path d="M960 358L960 275L865 308Z" fill="#00172b" stroke="#00172b"></path><path d="M960 275L891 201L876 256Z" fill="#001c3b" stroke="#001c3b"></path><path d="M876 256L891 201L754 216Z" fill="#00286a" stroke="#00286a"></path><path d="M143 0L0 0L0 96Z" fill="#002a79" stroke="#002a79"></path><path d="M0 357L0 486L50 460Z" fill="#1e2ca3" stroke="#1e2ca3"></path><path d="M50 460L0 540L116 540Z" fill="#2e2ab0" stroke="#2e2ab0"></path><path d="M870 139L858 0L805 0Z" fill="#00255b" stroke="#00255b"></path><path d="M960 91L858 0L870 139Z" fill="#00172b" stroke="#00172b"></path><path d="M0 486L0 540L50 460Z" fill="#00214b" stroke="#00214b"></path><path d="M865 308L960 275L876 256Z" fill="#2e2ab0" stroke="#2e2ab0"></path><path d="M891 201L960 128L870 139Z" fill="#00214b" stroke="#00214b"></path><path d="M918 457L816 330L810 443Z" fill="#0f2c95" stroke="#0f2c95"></path><path d="M876 540L918 457L810 443Z" fill="#022b87" stroke="#022b87"></path><path d="M780 540L876 540L810 443Z" fill="#00172b" stroke="#00172b"></path><path d="M960 275L960 128L891 201Z" fill="#1e2ca3" stroke="#1e2ca3"></path><path d="M918 457L960 358L865 308Z" fill="#00214b" stroke="#00214b"></path><path d="M960 128L960 91L870 139Z" fill="#2e2ab0" stroke="#2e2ab0"></path><path d="M960 540L960 473L918 457Z" fill="#00101c" stroke="#00101c"></path><path d="M918 457L960 473L960 358Z" fill="#0f2c95" stroke="#0f2c95"></path><path d="M960 91L960 0L858 0Z" fill="#001c3b" stroke="#001c3b"></path><path d="M876 540L960 540L918 457Z" fill="#1e2ca3" stroke="#1e2ca3"></path></g></svg>