<svg id="visual" viewBox="0 0 960 540" width="960" height="540" xmlns="http://www.w3.org/2000/svg" xmlns:xlink="http://www.w3.org/1999/xlink" version="1.1"><rect x="0" y="0" width="960" height="540" fill="#001220"></rect><defs><linearGradient id="grad1_0" x1="43.8%" y1="0%" x2="100%" y2="100%"><stop offset="14.444444444444446%" stop-color="#311cc2" stop-opacity="1"></stop><stop offset="85.55555555555554%" stop-color="#311cc2" stop-opacity="1"></stop></linearGradient></defs><defs><linearGradient id="grad1_1" x1="43.8%" y1="0%" x2="100%" y2="100%"><stop offset="14.444444444444446%" stop-color="#311cc2" stop-opacity="1"></stop><stop offset="85.55555555555554%" stop-color="#002877" stop-opacity="1"></stop></linearGradient></defs><defs><linearGradient id="grad1_2" x1="43.8%" y1="0%" x2="100%" y2="100%"><stop offset="14.444444444444446%" stop-color="#001220" stop-opacity="1"></stop><stop offset="85.55555555555554%" stop-color="#002877" stop-opacity="1"></stop></linearGradient></defs><defs><linearGradient id="grad2_0" x1="0%" y1="0%" x2="56.3%" y2="100%"><stop offset="14.444444444444446%" stop-color="#311cc2" stop-opacity="1"></stop><stop offset="85.55555555555554%" stop-color="#311cc2" stop-opacity="1"></stop></linearGradient></defs><defs><linearGradient id="grad2_1" x1="0%" y1="0%" x2="56.3%" y2="100%"><stop offset="14.444444444444446%" stop-color="#002877" stop-opacity="1"></stop><stop offset="85.55555555555554%" stop-color="#311cc2" stop-opacity="1"></stop></linearGradient></defs><defs><linearGradient id="grad2_2" x1="0%" y1="0%" x2="56.3%" y2="100%"><stop offset="14.444444444444446%" stop-color="#002877" stop-opacity="1"></stop><stop offset="85.55555555555554%" stop-color="#001220" stop-opacity="1"></stop></linearGradient></defs><g transform="translate(960, 0)"><path d="M0 378C-18.7 328.3 -37.4 278.6 -60.1 263.2C-82.8 247.8 -109.5 266.8 -126.3 262.2C-143.1 257.6 -150 229.5 -180.2 225.9C-210.4 222.4 -263.8 243.6 -295.5 235.7C-327.2 227.8 -337.2 190.9 -325.2 156.6C-313.3 122.3 -279.5 90.6 -284.7 65C-289.8 39.3 -333.9 19.7 -378 0L0 0Z" fill="#001f4b"></path><path d="M0 252C-12.5 218.9 -24.9 185.7 -40.1 175.5C-55.2 165.2 -73 177.9 -84.2 174.8C-95.4 171.7 -100 153 -120.1 150.6C-140.3 148.3 -175.9 162.4 -197 157.1C-218.2 151.9 -224.8 127.3 -216.8 104.4C-208.9 81.6 -186.4 60.4 -189.8 43.3C-193.2 26.2 -222.6 13.1 -252 0L0 0Z" fill="#002ba0"></path><path d="M0 126C-6.2 109.4 -12.5 92.9 -20 87.7C-27.6 82.6 -36.5 88.9 -42.1 87.4C-47.7 85.9 -50 76.5 -60.1 75.3C-70.1 74.1 -87.9 81.2 -98.5 78.6C-109.1 75.9 -112.4 63.6 -108.4 52.2C-104.4 40.8 -93.2 30.2 -94.9 21.7C-96.6 13.1 -111.3 6.6 -126 0L0 0Z" fill="#311cc2"></path></g><g transform="translate(0, 540)"><path d="M0 -378C30.7 -380.8 61.4 -383.6 83.9 -367.5C106.4 -351.5 120.7 -316.5 147.1 -305.4C173.5 -294.3 211.9 -307.1 235.7 -295.5C259.5 -283.9 268.7 -247.9 266.6 -212.6C264.5 -177.3 251 -142.8 245.1 -118C239.1 -93.3 240.8 -78.3 264.2 -60.3C287.6 -42.3 332.8 -21.1 378 0L0 0Z" fill="#001f4b"></path><path d="M0 -252C20.5 -253.9 40.9 -255.7 55.9 -245C70.9 -234.3 80.5 -211 98.1 -203.6C115.6 -196.2 141.2 -204.8 157.1 -197C173 -189.3 179.2 -165.3 177.7 -141.7C176.3 -118.2 167.3 -95.2 163.4 -78.7C159.4 -62.2 160.5 -52.2 176.1 -40.2C191.7 -28.2 221.9 -14.1 252 0L0 0Z" fill="#002ba0"></path><path d="M0 -126C10.2 -126.9 20.5 -127.9 28 -122.5C35.5 -117.2 40.2 -105.5 49 -101.8C57.8 -98.1 70.6 -102.4 78.6 -98.5C86.5 -94.6 89.6 -82.6 88.9 -70.9C88.2 -59.1 83.7 -47.6 81.7 -39.3C79.7 -31.1 80.3 -26.1 88.1 -20.1C95.9 -14.1 110.9 -7 126 0L0 0Z" fill="#311cc2"></path></g></svg>